<svg data-name="ICO auditoria medica" xmlns="http://www.w3.org/2000/svg" width="28" height="28" viewBox="0 0 28 28">
    <path data-name="Rectángulo 147532" style="fill:none" d="M0 0h28v28H0z"/>
    <g data-name="Grupo 160394">
        <path data-name="Trazado 37614" d="M13.775 27.8c-7.861 0-11.752-7.5-11.911-7.821a.927.927 0 0 1 0-.794c.159-.318 4.05-7.782 11.911-7.782s11.752 7.464 11.911 7.782a.927.927 0 0 1 0 .794c-.159.314-4.05 7.821-11.911 7.821zM3.691 19.579c.873 1.469 4.288 6.432 10.084 6.432s9.211-4.963 10.084-6.432c-.873-1.469-4.288-6.432-10.084-6.432S4.564 18.11 3.691 19.579z" transform="translate(.225 -5.4)" style="fill:#1473e6;stroke:#1473e6;stroke-width:.5px"/>
    </g>
    <g data-name="Grupo 160395">
        <path data-name="Trazado 37615" d="M26.875 30.249a3.375 3.375 0 1 1 3.375-3.375 3.372 3.372 0 0 1-3.375 3.375zm0-4.963a1.588 1.588 0 1 0 1.588 1.588 1.593 1.593 0 0 0-1.588-1.587z" transform="translate(-12.875 -12.696)" style="fill:#1473e6;stroke:#1473e6;stroke-width:.5px"/>
    </g>
</svg>
