<svg data-name="ICO cirugía" xmlns="http://www.w3.org/2000/svg" width="28" height="28" viewBox="0 0 28 28">
    <path data-name="Rectángulo 147531" style="fill:none" d="M0 0h28v28H0z"/>
    <path d="m25.4 24.817-4.762-4.762L8.451 7.913a3.162 3.162 0 0 0-4.444 0L2.7 9.222a3.185 3.185 0 0 0 0 4.484l12.18 12.183a.936.936 0 0 0 .635.278.79.79 0 0 0 .635-.278l.6-.6 1.389 1.31a.875.875 0 0 0 .6.238H24.6a1.156 1.156 0 0 0 1.111-.794 1.188 1.188 0 0 0-.311-1.226zM3.967 10.492l1.31-1.31a1.341 1.341 0 0 1 1.9 0l.913.913-3.25 3.254-.913-.913a1.378 1.378 0 0 1 .04-1.944zm2.143 4.127.992-.992L9.88 16.4a.936.936 0 0 0 .635.278.79.79 0 0 0 .635-.278.886.886 0 0 0 0-1.27l-2.778-2.773.992-.992 9.4 9.4-3.254 3.254zm12.976 10.436-1.071-1.032L20.039 22l3.056 3.056h-4.009z" transform="translate(.225 -3)" style="fill:#1473e6;stroke:#1473e6;stroke-width:.5px"/>
</svg>
