<svg data-name="ICO turnos" xmlns="http://www.w3.org/2000/svg" width="28" height="28" viewBox="0 0 28 28">
    <path data-name="Rectángulo 147529" style="fill:none" d="M0 0h28v28H0z"/>
    <path data-name="Trazado 37655" d="M22.562 1.8H12.043A2.851 2.851 0 0 0 9.2 4.643v17.413a1.057 1.057 0 0 0 1.955.533l1.245-2.061 1.6 2.31a1.047 1.047 0 0 0 .853.462 1 1 0 0 0 .853-.462l1.635-2.381 1.635 2.381a1.018 1.018 0 0 0 1.706 0l1.564-2.31 1.244 2.1a1.03 1.03 0 0 0 1.173.462 1.057 1.057 0 0 0 .782-1V4.643A2.905 2.905 0 0 0 22.562 1.8zm1.244 18.266-.675-1.137a.957.957 0 0 0-.853-.5 1.111 1.111 0 0 0-.888.462l-1.6 2.345-1.635-2.381a1.018 1.018 0 0 0-1.706 0l-1.635 2.381-1.6-2.381a1.1 1.1 0 0 0-.853-.462h-.036a1.033 1.033 0 0 0-.853.5l-.64 1.1V4.643A1.236 1.236 0 0 1 12.078 3.4h10.484a1.236 1.236 0 0 1 1.244 1.244z" transform="translate(-3.2 1.2)" style="fill:#1473e6;stroke:#1473e6;stroke-width:.5px"/>
    <path data-name="Trazado 37656" d="M27.538 19.7h-7.321a.827.827 0 0 0-.817.817.8.8 0 0 0 .817.817h7.321a.817.817 0 0 0 0-1.635z" transform="translate(-9.775 -10.339)" style="fill:#1473e6;stroke:#1473e6;stroke-width:.5px"/>
    <path data-name="Trazado 37657" d="M27.538 30h-7.321a.817.817 0 0 0 0 1.635h7.321a.827.827 0 0 0 .817-.817.851.851 0 0 0-.817-.818z" transform="translate(-9.775 -16.979)" style="fill:#1473e6;stroke:#1473e6;stroke-width:.5px"/>
</svg>
