<svg xmlns="http://www.w3.org/2000/svg" id="logo_completo" width="140.102" height="50" viewBox="0 0 140.102 50">
    <defs>
        <style>
            .cls-1{fill:#fff}
        </style>
    </defs>
    <g id="logo">
        <path id="Trazado_20" d="M252.24 119.7a4.868 4.868 0 0 0-2.008-.4c-2.78 0-4.942 2.052-4.942 6.177 0 4.28 2.03 6.244 4.942 6.244a14.6 14.6 0 0 0 4.324-.794 4 4 0 0 1-.4 1.809 10.96 10.96 0 0 1-4.721 1.125c-4.192 0-6.994-3.331-6.994-7.943 0-5.273 3.6-8.406 7.943-8.406a9.826 9.826 0 0 1 4.3.927 21.732 21.732 0 0 1-.353 3.949 5.128 5.128 0 0 1-2.1-.486z" class="cls-1" transform="translate(-178.727 -111.74)"/>
        <path id="Trazado_21" d="M289.43 142.552c1.787 0 2.648-1.611 2.648-4.17 0-2.206-1.037-3.861-2.648-3.861-1.721 0-2.67 1.544-2.67 3.861 0 2.515 1.015 4.17 2.67 4.17m5.273-4.17c0 3.729-2.074 5.846-5.273 5.846-3.376 0-5.273-2.008-5.273-5.846a5.128 5.128 0 0 1 5.273-5.516c3.155 0 5.273 1.963 5.273 5.516" class="cls-1" transform="translate(-206.071 -122.17)"/>
        <path id="Trazado_22" d="M320.542 118.584a3.8 3.8 0 0 1 .463-1.588 6.327 6.327 0 0 1 2.228-.375 4.631 4.631 0 0 1 1.412.2v14.274a8.269 8.269 0 0 1 1.7.353 3.791 3.791 0 0 1 .088.86 3.1 3.1 0 0 1-.044.508h-5.957a4.352 4.352 0 0 1 .331-1.28 6.825 6.825 0 0 1 1.346-.529v-12.423z" class="cls-1" transform="translate(-230.719 -111.132)"/>
        <path id="Trazado_23" d="M347.594 142.552c1.787 0 2.647-1.611 2.647-4.17 0-2.206-1.037-3.861-2.647-3.861-1.721 0-2.67 1.544-2.67 3.861 0 2.515 1.015 4.17 2.67 4.17m5.273-4.17c0 3.729-2.074 5.846-5.273 5.846-3.376 0-5.273-2.008-5.273-5.846a5.128 5.128 0 0 1 5.273-5.516c3.155 0 5.273 1.963 5.273 5.516" class="cls-1" transform="translate(-245.593 -122.17)"/>
        <path id="Trazado_24" d="M383.36 142.132a7.021 7.021 0 0 1 1.522.353 4 4 0 0 1 .066 1.368h-5.8a4.348 4.348 0 0 1 .331-1.279 7.438 7.438 0 0 1 1.346-.53v-7.082h-1.588a3.71 3.71 0 0 1 .463-1.567 5.29 5.29 0 0 1 2.03-.375 4.2 4.2 0 0 1 1.257.177v1.677h.287a3.833 3.833 0 0 1 3.574-2.008c1.787 0 3.442.552 3.442 3.993 0 1.743-.066 3.574-.154 5.273a7.784 7.784 0 0 1 1.677.353 3.812 3.812 0 0 1 .088.86 3.091 3.091 0 0 1-.045.508h-5.6a4.333 4.333 0 0 1 .309-1.279 6.062 6.062 0 0 1 1.147-.53V137.3c0-1.5-.486-2.493-1.9-2.493a3.278 3.278 0 0 0-2.449 1.324z" class="cls-1" transform="translate(-270.615 -122.17)"/>
        <path id="Trazado_25" d="M426.872 118.1a1.5 1.5 0 0 1-1.567 1.655 1.452 1.452 0 0 1-1.588-1.655 1.494 1.494 0 0 1 1.588-1.544 1.454 1.454 0 0 1 1.567 1.544m-4.479 5.78a3.713 3.713 0 0 1 .463-1.566 6.33 6.33 0 0 1 2.228-.375 5.55 5.55 0 0 1 1.435.177v8.935a7.594 7.594 0 0 1 1.654.353 3.813 3.813 0 0 1 .088.861 3.129 3.129 0 0 1-.044.507H422.3a4.353 4.353 0 0 1 .331-1.279 6.835 6.835 0 0 1 1.346-.529v-7.082z" class="cls-1" transform="translate(-299.941 -111.086)"/>
        <path id="Trazado_26" d="M451.148 139.176a6.142 6.142 0 0 0-1.39-.177c-1.5 0-2.338.706-2.338 1.765a1.538 1.538 0 0 0 1.7 1.611 2.527 2.527 0 0 0 2.03-.949zm.044 3.42a3.408 3.408 0 0 1-3.155 1.633 2.969 2.969 0 0 1-3.155-3.111c0-2.361 1.963-3.552 4.3-3.552a4.883 4.883 0 0 1 1.92.375v-1.015c0-1.412-.684-2.074-2.008-2.074a8.105 8.105 0 0 0-3.4.993 2.6 2.6 0 0 1-.088-.75 3.417 3.417 0 0 1 .331-1.544 10.776 10.776 0 0 1 3.773-.684c2.581 0 3.861 1.1 3.861 4.038v3.995a2.839 2.839 0 0 0 .287 1.39 7.474 7.474 0 0 0 1.5-.221 1.46 1.46 0 0 1 .022.287 2.926 2.926 0 0 1-.309 1.236 6.578 6.578 0 0 1-2.736.64 2.46 2.46 0 0 1-.993-1.633z" class="cls-1" transform="translate(-315.281 -122.17)"/>
        <path id="Trazado_27" d="M250.486 187.279a4.014 4.014 0 0 0-1.854-.419c-1.655 0-2.67.838-2.67 1.941 0 3.618 7.391 2.515 7.391 7.9 0 3.663-2.78 4.81-5.913 4.81a13.368 13.368 0 0 1-4.721-.838 29.915 29.915 0 0 1 .309-4.015 9.125 9.125 0 0 1 2.162.309v2.25a6.6 6.6 0 0 0 2.626.574c1.9 0 2.912-.9 2.912-2.471 0-3.773-7.435-2.317-7.435-8.031 0-2.493 1.985-4.126 5.229-4.126a13.837 13.837 0 0 1 4.346.75 19.675 19.675 0 0 1-.375 3.6 5.63 5.63 0 0 1-2.007-.419z" class="cls-1" transform="translate(-177.915 -157.704)"/>
        <path id="Trazado_28" d="M286.762 202.934H285.2a3.8 3.8 0 0 1 .463-1.566 5.861 5.861 0 0 1 2.228-.376 5.356 5.356 0 0 1 1.412.177v7.391a6.512 6.512 0 0 0 .176 1.588h1.633a1.807 1.807 0 0 1 .022.331 2.928 2.928 0 0 1-.264 1.169 14.337 14.337 0 0 1-3.4.441 5.083 5.083 0 0 1-.529-1.831h-.155a3.738 3.738 0 0 1-3.442 1.942c-1.787 0-3.354-.6-3.354-4.038 0-1.633.022-3.53.11-5.229h-1.654a3.7 3.7 0 0 1 .463-1.566 6.46 6.46 0 0 1 2.251-.376 5.354 5.354 0 0 1 1.412.177v6.574c0 1.566.463 2.493 1.875 2.493a3.29 3.29 0 0 0 2.317-1.214z" class="cls-1" transform="translate(-202.19 -168.461)"/>
        <path id="Trazado_29" d="M326.1 185.742a1.5 1.5 0 0 1-1.566 1.654 1.452 1.452 0 0 1-1.589-1.654 1.494 1.494 0 0 1 1.589-1.545 1.454 1.454 0 0 1 1.566 1.545m-4.479 5.78a3.7 3.7 0 0 1 .463-1.566 6.327 6.327 0 0 1 2.228-.376 5.531 5.531 0 0 1 1.434.177v8.935a7.577 7.577 0 0 1 1.654.353 3.805 3.805 0 0 1 .088.86 3.129 3.129 0 0 1-.044.508h-5.913a4.36 4.36 0 0 1 .331-1.28 6.854 6.854 0 0 1 1.346-.529v-7.082z" class="cls-1" transform="translate(-231.468 -157.049)"/>
        <path id="Trazado_30" d="M344.25 211.08l5.582-7.634v-.2h-3.023a7.681 7.681 0 0 1-.441 1.588 5.407 5.407 0 0 1-1.831-.309v-2.846h8.229l.309 1.213-5.582 7.656v.2a30.7 30.7 0 0 0 3.574-.2 9.172 9.172 0 0 1 .485-1.567 4.964 4.964 0 0 1 1.235-.154 3.2 3.2 0 0 1 .706.066l-.4 3.4h-8.561z" class="cls-1" transform="translate(-246.903 -168.929)"/>
        <path id="Trazado_31" d="M383.072 206.821a6.155 6.155 0 0 0-1.39-.177c-1.5 0-2.339.706-2.339 1.765a1.538 1.538 0 0 0 1.7 1.611 2.526 2.526 0 0 0 2.03-.949zm.044 3.42a3.408 3.408 0 0 1-3.155 1.633 2.969 2.969 0 0 1-3.155-3.111c0-2.36 1.963-3.552 4.3-3.552a4.878 4.878 0 0 1 1.92.375v-1.015c0-1.412-.684-2.074-2.008-2.074a8.113 8.113 0 0 0-3.4.993 2.6 2.6 0 0 1-.088-.75 3.407 3.407 0 0 1 .331-1.544 10.772 10.772 0 0 1 3.772-.684c2.581 0 3.861 1.1 3.861 4.037v3.993a2.84 2.84 0 0 0 .287 1.39 7.473 7.473 0 0 0 1.5-.221 1.44 1.44 0 0 1 .022.287 2.919 2.919 0 0 1-.309 1.235 6.566 6.566 0 0 1-2.736.64 2.46 2.46 0 0 1-.993-1.633z" class="cls-1" transform="translate(-269.025 -168.134)"/>
        <g id="Grupo_355">
            <path id="Trazado_32" d="M117.861 140.893a5.626 5.626 0 1 0-5.721-5.627 5.675 5.675 0 0 0 5.721 5.627" class="cls-1" transform="translate(-93.187 -119.98)"/>
            <path id="Trazado_33" d="M81.887 145.678c3.82-4.062 13.013-16.637 7.647-39.363a21.525 21.525 0 0 1-7.647 39.363M56.47 124.5a21.4 21.4 0 0 1 2.511-10.078c5.628 4.7 15.01 18.435 11.925 30.407A21.571 21.571 0 0 1 56.47 124.5m21.538-21.538a21.45 21.45 0 0 1 6 .858c4.256 7.912 3.913 16.372-1 19.418-5.229 3.24-11.939 0-18.6-9.194a30.868 30.868 0 0 1-2.483-3.847 21.489 21.489 0 0 1 16.084-7.234m0-3.462a25 25 0 1 0 25 25 25 25 0 0 0-25-25" class="cls-1" transform="translate(-53.008 -99.496)"/>
        </g>
    </g>
</svg>
