<svg data-name="MDI / clipboard-clock-outline" xmlns="http://www.w3.org/2000/svg" width="24" height="24" viewBox="0 0 24 24">
    <path data-name="Path / clipboard-clock-outline" d="M21 11.11V5a2 2 0 0 0-2-2h-4.18a2.988 2.988 0 0 0-5.64 0H5a2.006 2.006 0 0 0-2 2v14a2 2 0 0 0 2 2h6.11A6.994 6.994 0 0 0 21 11.11M12 3a1 1 0 1 1-1 1 1 1 0 0 1 1-1M5 19V5h2v2h10V5h2v4.68A6.992 6.992 0 0 0 9.68 19H5m11 2a5 5 0 1 1 5-5 5 5 0 0 1-5 5m.5-4.75 2.86 1.69-.75 1.22L15 17v-5h1.5z" transform="translate(-1)" style="fill:#f29423"/>
</svg>
