<svg xmlns="http://www.w3.org/2000/svg" width="24" height="16.871" viewBox="0 0 24 16.871">
    <path d="M24.5 20.217h-.9a.794.794 0 0 1-.662-.857v-5.923a.808.808 0 0 1 .7-.9h.862a.7.7 0 0 0 .7-.7.666.666 0 0 0-.7-.662h-.9a2.142 2.142 0 0 0-1.792 1.13h-5.179l-.506-.429a5.928 5.928 0 0 0-7.286-.429 9.507 9.507 0 0 0-1.91 1.953.038.038 0 0 1-.039.039h-.9V13.4a2.11 2.11 0 0 0-2.026-2.221H1.9a.7.7 0 0 0-.7.7.666.666 0 0 0 .7.662h2.027a.794.794 0 0 1 .662.857v5.883a.808.808 0 0 1-.7.9H1.9a.7.7 0 0 0 0 1.4h2.027A2.142 2.142 0 0 0 5.72 20.45h.312a2.154 2.154 0 0 1 .974.273.633.633 0 0 0 .117.584l.9 1.208a.7.7 0 0 0 .351.234l1.247.351.545 1.169a.562.562 0 0 0 .429.351l1.286.351.818 1.325a.778.778 0 0 0 .39.312l2.182.623c.078 0 .117.039.195.039a.74.74 0 0 0 .584-.312l4.364-6.468c.039 0 .039-.039.117-.039h1.364a2.033 2.033 0 0 0 1.753 1.13h.852a.7.7 0 0 0 .7-.7.666.666 0 0 0-.7-.664zm-16.638-.546a3.1 3.1 0 0 0-1.831-.584h-.039V14.8h.9a1.5 1.5 0 0 0 1.169-.584 8.537 8.537 0 0 1 1.6-1.636 4.53 4.53 0 0 1 5.61.351L16.59 14.1a1 1 0 0 1 .39.662.5.5 0 0 1-.156.39l-.662.7a1.086 1.086 0 0 1-1.481.117l-.156-.117a2.384 2.384 0 0 0-3.156.234zm11.533-.156c-.039.039-.078.078-.078.117l-4.169 6.156-1.442-.39-.818-1.325a.778.778 0 0 0-.39-.312l-1.247-.351-.545-1.169a.562.562 0 0 0-.429-.351l-1.325-.351-.429-.584 3.818-3.935a1.062 1.062 0 0 1 1.364-.078l.156.117a2.5 2.5 0 0 0 3.273-.273l.662-.7a1.9 1.9 0 0 0 .506-1.4 1.8 1.8 0 0 0-.312-.974h3.545v5.416h-1.088a1.323 1.323 0 0 0-1.052.387z" transform="translate(-1.2 -10.397)" style="fill:#1473e6"/>
</svg>
