<svg xmlns="http://www.w3.org/2000/svg" width="20" height="20" viewBox="0 0 20 20">
    <path fill="#fff" d="M19.777 5.5L14.01.468a1.65 1.65 0 0 0-2.251 0L5.991 5.5A1.874 1.874 0 0 0 5.4 6.855v9.454a1.688 1.688 0 0 0 1.716 1.716h2.56a1.688 1.688 0 0 0 1.716-1.716v-3.32a.207.207 0 0 1 .225-.225h2.56a.207.207 0 0 1 .225.225v3.292A1.688 1.688 0 0 0 16.12 18h2.56a1.688 1.688 0 0 0 1.72-1.719V6.855a1.8 1.8 0 0 0-.623-1.355zm-.9 10.8a.207.207 0 0 1-.225.225h-2.56a.207.207 0 0 1-.225-.225v-3.32a1.688 1.688 0 0 0-1.716-1.716H11.59a1.688 1.688 0 0 0-1.716 1.716v3.292a.207.207 0 0 1-.225.225H7.088a.207.207 0 0 1-.225-.225V6.855c0-.084 0-.141.084-.141l5.8-5.036a.221.221 0 0 1 .309 0l5.74 5.036c.084 0 .084.084.084.141v9.454z" transform="translate(-2.4 0.975)"/>
    <path fill="none" d="M0 0H20V20H0z"/>
</svg>
