<svg xmlns="http://www.w3.org/2000/svg" id="ICO_Siniestros_de_hoy" width="20" height="20" viewBox="0 0 20 20">
    <defs>
        <style>
            .cls-2{fill:#fff}
        </style>
    </defs>
    <path id="Rectángulo_145632" fill="none" d="M0 0H20V20H0z"/>
    <g id="calendar" transform="translate(1 1)">
        <path id="Trazado_48" d="M16.875 3.741H9.759v-.957a1.468 1.468 0 0 0 .759-1.266A1.549 1.549 0 0 0 9 0a1.5 1.5 0 0 0-1.491 1.491 1.434 1.434 0 0 0 .759 1.266v.984H1.125A1.11 1.11 0 0 0 0 4.866v12.009A1.167 1.167 0 0 0 1.125 18h15.75A1.167 1.167 0 0 0 18 16.875V4.894a1.172 1.172 0 0 0-1.125-1.153zm-.366 12.769H1.491V9h14.99v7.509zm-15.019-9V5.259h14.991v2.25z" class="cls-2"/>
        <path id="Trazado_49" d="M13.758 38.891h.759a.34.34 0 0 0 .366-.366v-.759a.34.34 0 0 0-.366-.366h-.759a.34.34 0 0 0-.366.366v.759a.339.339 0 0 0 .366.366z" class="cls-2" transform="translate(-9.623 -26.881)"/>
        <path id="Trazado_50" d="M24.366 38.891h.759a.34.34 0 0 0 .366-.366v-.759a.34.34 0 0 0-.366-.366h-.759a.34.34 0 0 0-.366.366v.759a.355.355 0 0 0 .366.366z" class="cls-2" transform="translate(-17.25 -26.881)"/>
        <path id="Trazado_51" d="M35.066 38.891h.759a.34.34 0 0 0 .366-.366v-.759a.34.34 0 0 0-.366-.366h-.759a.34.34 0 0 0-.366.366v.759a.355.355 0 0 0 .366.366z" class="cls-2" transform="translate(-24.941 -26.881)"/>
        <path id="Trazado_52" d="M45.758 38.891h.759a.34.34 0 0 0 .366-.366v-.759a.34.34 0 0 0-.366-.366h-.759a.34.34 0 0 0-.366.366v.759a.339.339 0 0 0 .366.366z" class="cls-2" transform="translate(-32.623 -26.881)"/>
        <path id="Trazado_53" d="M13.758 49.491h.759a.34.34 0 0 0 .366-.366v-.759a.34.34 0 0 0-.366-.366h-.759a.34.34 0 0 0-.366.366v.759c-.028.225.141.366.366.366z" class="cls-2" transform="translate(-9.623 -34.5)"/>
        <path id="Trazado_54" d="M24.366 49.491h.759a.34.34 0 0 0 .366-.366v-.759a.34.34 0 0 0-.366-.366h-.759a.34.34 0 0 0-.366.366v.759a.34.34 0 0 0 .366.366z" class="cls-2" transform="translate(-17.25 -34.5)"/>
        <path id="Trazado_55" d="M35.066 49.491h.759a.34.34 0 0 0 .366-.366v-.759a.34.34 0 0 0-.366-.366h-.759a.34.34 0 0 0-.366.366v.759a.34.34 0 0 0 .366.366z" class="cls-2" transform="translate(-24.941 -34.5)"/>
        <path id="Trazado_56" d="M45.758 49.491h.759a.34.34 0 0 0 .366-.366v-.759a.34.34 0 0 0-.366-.366h-.759a.34.34 0 0 0-.366.366v.759c-.028.225.141.366.366.366z" class="cls-2" transform="translate(-32.623 -34.5)"/>
    </g>
</svg>
