<svg xmlns="http://www.w3.org/2000/svg" id="ICO_Traslados" width="20" height="20" viewBox="0 0 20 20">
    <defs>
        <style>
            .cls-2{fill:#fff}
        </style>
    </defs>
    <path id="Rectángulo_145636" fill="none" d="M0 0H20V20H0z"/>
    <g id="car" transform="translate(1 1)">
        <path id="Trazado_37" d="M17.073 6.066l-.225-2.92A3.593 3.593 0 0 0 13.17 0H4.8a3.593 3.593 0 0 0-3.677 3.145L.9 6.066a.979.979 0 0 0-.9.983v6.88a1.008 1.008 0 0 0 .983 1.039h.534v.674A2.231 2.231 0 0 0 3 17.8a2.256 2.256 0 0 0 3-2.106v-.758h5.981v.674a2.231 2.231 0 0 0 1.488 2.162 2.256 2.256 0 0 0 3-2.106v-.758h.534A1.008 1.008 0 0 0 18 13.872V7.048a1.026 1.026 0 0 0-.927-.982zm-12.58 9.66a.773.773 0 0 1-.758.758.722.722 0 0 1-.758-.758v-.758h1.516zm10.474 0a.773.773 0 0 1-.758.758.722.722 0 0 1-.758-.758v-.758h1.516zM4.858 1.516h8.228a2.055 2.055 0 0 1 2.162 1.8l.225 2.7h-13L2.7 3.229a2.053 2.053 0 0 1 2.158-1.713zm-3.37 11.963V7.5h14.968v5.981z" class="cls-2"/>
        <path id="Trazado_38" d="M10.246 29.6A2.237 2.237 0 0 0 8 31.762a2.248 2.248 0 1 0 2.246-2.162zm0 2.92a.762.762 0 0 1-.758-.674.706.706 0 0 1 .758-.674.762.762 0 0 1 .758.674.743.743 0 0 1-.758.674z" class="cls-2" transform="translate(-5.754 -21.288)"/>
        <path id="Trazado_39" d="M42.247 29.4A2.218 2.218 0 0 0 40 31.646a2.253 2.253 0 0 0 2.247 2.247 2.218 2.218 0 0 0 2.246-2.247 2.253 2.253 0 0 0-2.246-2.246zm0 2.977a.758.758 0 1 1 0-1.516.722.722 0 0 1 .758.758.815.815 0 0 1-.758.758z" class="cls-2" transform="translate(-28.768 -21.144)"/>
        <path id="Trazado_40" d="M28.946 34.7h-1.488a.758.758 0 1 0 0 1.516h1.488a.722.722 0 0 0 .758-.758.738.738 0 0 0-.758-.758z" class="cls-2" transform="translate(-19.202 -24.956)"/>
    </g>
</svg>
