<svg xmlns="http://www.w3.org/2000/svg" width="19.098" height="13.524" viewBox="0 0 19.098 13.524">
    <defs>
        <style>
            .cls-1{fill:#f5f5f5}
        </style>
    </defs>
    <g id="comments-alt">
        <path id="Trazado_37596" data-name="Trazado 37596" class="cls-1" d="M18.465 10H3.063A1.859 1.859 0 0 0 1.2 11.844v9.836a1.805 1.805 0 0 0 .932 1.6 2.006 2.006 0 0 0 .932.246 2.108 2.108 0 0 0 .932-.246l2.733-1.568a.834.834 0 0 1 .373-.092h11.332a1.859 1.859 0 0 0 1.866-1.846v-7.93A1.813 1.813 0 0 0 18.465 10zm.776 9.774a.765.765 0 0 1-.776.768H7.131a2.006 2.006 0 0 0-.932.246l-2.732 1.568a.863.863 0 0 1-.776 0 .689.689 0 0 1-.373-.645v-9.867a.765.765 0 0 1 .776-.768H18.5a.765.765 0 0 1 .776.768v7.93z" transform="translate(-1.2 -10)"/>
        <path id="Trazado_37597" data-name="Trazado 37597" class="cls-1" d="M24.981 22h-8.322a.553.553 0 1 0 0 1.107h8.353a.554.554 0 0 0 .559-.553.581.581 0 0 0-.59-.554z" transform="translate(-11.473 -18.312)"/>
        <path id="Trazado_37598" data-name="Trazado 37598" class="cls-1" d="M23.677 33.3h-7.018a.553.553 0 1 0 0 1.107h7.049a.554.554 0 0 0 .559-.553.581.581 0 0 0-.59-.554z" transform="translate(-11.473 -26.138)"/>
    </g>
</svg>
