<svg width="24" height="24" viewBox="0 0 24 24" fill="none" xmlns="http://www.w3.org/2000/svg">
<g clip-path="url(#clip0_152_1109)">
<path d="M14 2H6.00001C5.46958 2 4.96087 2.21071 4.5858 2.58579C4.21073 2.96086 4.00001 3.46957 4.00001 4V20C3.99909 20.2629 4.05019 20.5234 4.15037 20.7665C4.25055 21.0095 4.39783 21.2304 4.58374 21.4163C4.76964 21.6022 4.99048 21.7495 5.23355 21.8496C5.47662 21.9498 5.73711 22.0009 6.00001 22H18C18.2629 22.0009 18.5234 21.9498 18.7665 21.8496C19.0095 21.7495 19.2304 21.6022 19.4163 21.4163C19.6022 21.2304 19.7495 21.0095 19.8497 20.7665C19.9498 20.5234 20.0009 20.2629 20 20V8L14 2ZM18 20H6.00001V4H13V9H18V20ZM10 11.5C10 11.7967 9.91204 12.0867 9.74722 12.3334C9.5824 12.58 9.34813 12.7723 9.07404 12.8858C8.79995 12.9994 8.49835 13.0291 8.20738 12.9712C7.9164 12.9133 7.64913 12.7704 7.43935 12.5607C7.22957 12.3509 7.08671 12.0836 7.02883 11.7926C6.97096 11.5017 7.00066 11.2001 7.11419 10.926C7.22772 10.6519 7.41998 10.4176 7.66666 10.2528C7.91333 10.088 8.20334 10 8.50001 10C8.89784 10 9.27937 10.158 9.56067 10.4393C9.84198 10.7206 10 11.1022 10 11.5ZM16 17.5C16 17.7967 15.912 18.0867 15.7472 18.3334C15.5824 18.58 15.3481 18.7723 15.074 18.8858C14.7999 18.9993 14.4983 19.0291 14.2074 18.9712C13.9164 18.9133 13.6491 18.7704 13.4394 18.5607C13.2296 18.3509 13.0867 18.0836 13.0288 17.7926C12.971 17.5017 13.0007 17.2001 13.1142 16.926C13.2277 16.6519 13.42 16.4176 13.6667 16.2528C13.9133 16.088 14.2033 16 14.5 16C14.8978 16 15.2794 16.158 15.5607 16.4393C15.842 16.7206 16 17.1022 16 17.5ZM16 11.35L8.37001 19L7.00001 17.65L14.65 10L16 11.35Z" fill="#505050"/>
</g>
<defs>
<clipPath id="clip0_152_1109">
<rect width="24" height="24" fill="white"/>
</clipPath>
</defs>
</svg>
