<svg id="SAS_MENU_prs._nomencladas" data-name="SAS MENU prs. nomencladas" xmlns="http://www.w3.org/2000/svg" width="20" height="20" viewBox="0 0 20 20">
    <defs>
        <style>
            .cls-2{fill:#fff}
        </style>
    </defs>
    <path id="Rectángulo_147518" data-name="Rectángulo 147518" style="fill:none" d="M0 0h20v20H0z"/>
    <g id="library" transform="translate(0 3.516)">
        <path id="Trazado_37582" data-name="Trazado 37582" class="cls-2" d="M19.742 9.2h-7.4a1.726 1.726 0 0 0-1.071.39A1.555 1.555 0 0 0 10.2 9.2H2.8a1.511 1.511 0 0 0-1.5 1.493v10.974a1.511 1.511 0 0 0 1.494 1.493h7.922v.292a.584.584 0 0 0 1.169 0v-.292h7.922a1.511 1.511 0 0 0 1.493-1.493V10.693A1.546 1.546 0 0 0 19.742 9.2zM2.794 22.024a.36.36 0 0 1-.357-.357V10.693a.36.36 0 0 1 .357-.357h7.435a.5.5 0 0 1 .487.487v11.2zm17.338-.357a.36.36 0 0 1-.357.357h-7.923v-11.2a.5.5 0 0 1 .487-.487h7.4a.36.36 0 0 1 .357.357v10.973z" transform="translate(-1.3 -9.2)"/>
        <path id="Trazado_37583" data-name="Trazado 37583" class="cls-2" d="M12.384 20.369h2.5a.584.584 0 1 0 0-1.169h-2.5a.582.582 0 0 0-.584.584.6.6 0 0 0 .584.585z" transform="translate(-8.391 -15.953)"/>
        <path id="Trazado_37584" data-name="Trazado 37584" class="cls-2" d="M41.184 20.369h2.5a.584.584 0 1 0 0-1.169h-2.5a.584.584 0 1 0 0 1.169z" transform="translate(-27.84 -15.953)"/>
        <path id="Trazado_37585" data-name="Trazado 37585" class="cls-2" d="M43.784 27.8h-2.5a.584.584 0 1 0 0 1.169h2.5a.584.584 0 1 0 0-1.169z" transform="translate(-27.908 -21.761)"/>
        <path id="Trazado_37586" data-name="Trazado 37586" class="cls-2" d="M15.084 27.8h-2.5a.584.584 0 1 0 0 1.169h2.5a.582.582 0 0 0 .584-.584.6.6 0 0 0-.584-.585z" transform="translate(-8.526 -21.761)"/>
        <path id="Trazado_37587" data-name="Trazado 37587" class="cls-2" d="M15.084 37h-2.5a.584.584 0 1 0 0 1.169h2.5a.582.582 0 0 0 .584-.584.6.6 0 0 0-.584-.585z" transform="translate(-8.526 -27.974)"/>
        <path id="Trazado_37588" data-name="Trazado 37588" class="cls-2" d="M43.784 37h-2.5a.584.584 0 1 0 0 1.169h2.5a.584.584 0 1 0 0-1.169z" transform="translate(-27.908 -27.974)"/>
    </g>
</svg>
