<svg data-name="ico-+info-tabla" xmlns="http://www.w3.org/2000/svg" width="40" height="40" viewBox="0 0 40 40">
    <rect width="40" height="40" rx="5" style="fill:rgba(255,112,82,.1)"/>
    <path data-name="Path / clipboard-edit" d="M21.04 12.13a.533.533 0 0 1 .38.17l1.28 1.28a.532.532 0 0 1 0 .77l-1 1-2.05-2.05 1-1a.555.555 0 0 1 .39-.17m-1.97 1.75 2.05 2.05L15.06 22H13v-2.06l6.07-6.06M19 3a2.006 2.006 0 0 1 2 2v4L11 19v2H5a2.006 2.006 0 0 1-2-2V5a2.006 2.006 0 0 1 2-2h4.18a2.988 2.988 0 0 1 5.64 0H19m-7 0a1 1 0 1 0 1 1 1 1 0 0 0-1-1z" transform="translate(7 9)" style="fill:#ff7052"/>
</svg>
