<svg xmlns="http://www.w3.org/2000/svg" width="20" height="20" viewBox="0 0 20 20">
    <g transform="translate(-52 -56)">
        <circle cx="10" cy="10" r="10" fill="rgba(47,97,213,0.1)" transform="translate(52 56)"/>
        <g>
            <g>
                <path fill="none" d="M0 0H16V16H0z" transform="translate(54 58)"/>
            </g>
            <g>
                <g>
                    <path fill="#2f61d5" d="M15.667 7.333a1.337 1.337 0 0 1-1.333 1.333 1.133 1.133 0 0 1-.34-.047l-2.374 2.368a1.178 1.178 0 0 1 .047.347 1.333 1.333 0 1 1-2.667 0 1.178 1.178 0 0 1 .047-.347l-1.7-1.7a1.311 1.311 0 0 1-.693 0l-3.034 3.04a1.133 1.133 0 0 1 .047.34 1.333 1.333 0 1 1-1.333-1.333 1.133 1.133 0 0 1 .34.047l3.04-3.033A1.178 1.178 0 0 1 5.667 8a1.333 1.333 0 0 1 2.666 0 1.178 1.178 0 0 1-.047.347l1.7 1.7a1.311 1.311 0 0 1 .693 0l2.367-2.373A1.133 1.133 0 0 1 13 7.333a1.333 1.333 0 0 1 2.667 0z" transform="translate(54 58) translate(0.667 4) translate(-1 -6)"/>
                </g>
            </g>
        </g>
    </g>
</svg>
