<svg xmlns="http://www.w3.org/2000/svg" width="50" height="50" viewBox="0 0 50 50">
    <defs>
        <style>
            .cls-1{fill:#124680}
        </style>
    </defs>
    <g id="isologo_Colonia_Suiza">
        <path id="Trazado_1" d="M117.861 140.893a5.626 5.626 0 1 0-5.721-5.627 5.675 5.675 0 0 0 5.721 5.627" class="cls-1" transform="translate(-93.188 -119.98)"/>
        <path id="Trazado_2" d="M81.887 145.678c3.82-4.062 13.013-16.637 7.647-39.363a21.525 21.525 0 0 1-7.647 39.363M56.47 124.5a21.4 21.4 0 0 1 2.511-10.078c5.628 4.7 15.01 18.435 11.925 30.407A21.571 21.571 0 0 1 56.47 124.5m21.538-21.538a21.45 21.45 0 0 1 6 .858c4.256 7.912 3.913 16.372-1 19.418-5.229 3.24-11.939 0-18.6-9.194a30.868 30.868 0 0 1-2.483-3.847 21.489 21.489 0 0 1 16.084-7.234m0-3.462a25 25 0 1 0 25 25 25 25 0 0 0-25-25" class="cls-1" transform="translate(-53.008 -99.496)"/>
    </g>
</svg>
