<svg xmlns="http://www.w3.org/2000/svg" width="24" height="24" viewBox="0 0 24 24">
    <path data-name="Path / calendar-question" d="M6 1v2H5a2 2 0 0 0-2 2v14a2 2 0 0 0 2 2h14a2 2 0 0 0 2-2V5a2 2 0 0 0-2-2h-1V1h-2v2H8V1H6M5 8h14v11H5V8m7.19 1a3.515 3.515 0 0 0-2.11.59 2.063 2.063 0 0 0-.77 1.77l.01.03h1.93a.915.915 0 0 1 .28-.69 1 1 0 0 1 .66-.23 1.035 1.035 0 0 1 .75.28 1.056 1.056 0 0 1 .26.75 1.387 1.387 0 0 1-.23.82 1.818 1.818 0 0 1-.61.59 4.039 4.039 0 0 0-1.05.91A1.975 1.975 0 0 0 11 15h2a1.693 1.693 0 0 1 .13-.74 1.39 1.39 0 0 1 .51-.52 3.143 3.143 0 0 0 1.11-.93 2.133 2.133 0 0 0 .44-1.31 2.251 2.251 0 0 0-.81-1.82A3.279 3.279 0 0 0 12.19 9M11 16v2h2v-2z" transform="translate(0 1)" style="fill:#fff"/>
</svg>
