<svg xmlns="http://www.w3.org/2000/svg" width="24" height="24" viewBox="0 0 24 24">
    <path data-name="Path / hours-24" d="M13 4.07a7.984 7.984 0 0 1 2.28 15.21L13 17v5h5l-1.22-1.22A10 10 0 0 0 13 2.05M11 2a9.962 9.962 0 0 0-5.32 2.21L7.1 5.63A8.2 8.2 0 0 1 11 4V2M4.2 5.68A10.028 10.028 0 0 0 2 11h2a8.1 8.1 0 0 1 1.63-3.9L4.2 5.68M2 13a9.975 9.975 0 0 0 2.22 5.32l1.42-1.42A8.21 8.21 0 0 1 4 13H2m5.11 5.37-1.43 1.42A10.041 10.041 0 0 0 11 22v-2a8.063 8.063 0 0 1-3.89-1.63z" style="fill:#fff"/>
    <path data-name="Unión 2" d="M1.583 8H.426l3.282-5.968H.061L0 0h5.9v2.115L2.614 8z" transform="translate(6.049 7.983)" style="fill:#fff"/>
    <path data-name="Path / hours-24" d="M6 10h3v1H8a2.006 2.006 0 0 0-2 2v3h5v-2H8v-1h1a1.993 1.993 0 0 0 2-2v-1a2 2 0 0 0-2-2H6" transform="translate(7 -.018)" style="fill:#fff"/>
</svg>
