<svg xmlns="http://www.w3.org/2000/svg" width="24" height="24" viewBox="0 0 24 24">
    <path data-name="Path / notebook-edit-outline" d="m19.07 14.88 2.05 2.05L15.06 23H13v-2.06l6.07-6.06m1.97-1.75a.533.533 0 0 1 .38.17l1.28 1.28a.532.532 0 0 1 0 .77l-1 1-2.05-2.05 1-1a.555.555 0 0 1 .39-.17M17 4v6l-2-2-2 2V4H9v16h2v2H7a2.074 2.074 0 0 1-2-2v-1H3v-2h2v-4H3v-2h2V7H3V5h2V4a2 2 0 0 1 2-2h12a2.074 2.074 0 0 1 2 2v6l-2 2V4h-2M5 5v2h2V5H5m0 6v2h2v-2H5m0 6v2h2v-2z" transform="translate(-1)" style="fill:#fff"/>
</svg>
