<svg xmlns="http://www.w3.org/2000/svg" width="18.949" height="18.524" viewBox="0 0 18.949 18.524">
    <path data-name="certificate" d="M18.462 11.6h-1.479V3.558A2.271 2.271 0 0 0 14.826 1.3H4.751A3.452 3.452 0 0 0 1.3 4.793v1.325a1.014 1.014 0 0 0 1.017.994h2.249v8.494a1.868 1.868 0 0 0 1.91 1.807h1.356v1.747a.643.643 0 0 0 .339.572.6.6 0 0 0 .308.09.836.836 0 0 0 .37-.09l1.571-.994 1.541.964.062.03a.768.768 0 0 0 .678-.03.67.67 0 0 0 .308-.542v-1.747h5.454a1.769 1.769 0 0 0 1.787-1.747v-2.349a1.763 1.763 0 0 0-1.788-1.717zM2.378 4.793a2.439 2.439 0 0 1 2.372-2.47h7.55a2.708 2.708 0 0 0-.463 1.477v2.258H2.378zm7.98 9.819a2.2 2.2 0 1 1 2.28-2.2 2.244 2.244 0 0 1-2.28 2.2zm.431 3.132a.8.8 0 0 0-.894 0l-1.048.663v-3.072a3.534 3.534 0 0 0 1.479.331 3.675 3.675 0 0 0 1.51-.331v3.072zm2.126-1.386v-1.866a3.2 3.2 0 0 0 .8-2.108 3.36 3.36 0 0 0-6.717 0 3.2 3.2 0 0 0 .8 2.108v1.837H6.445a.79.79 0 0 1-.832-.753V7.112h6.317a1.014 1.014 0 0 0 1.017-.994V3.8a1.458 1.458 0 0 1 1.294-1.476h.493a1.216 1.216 0 0 1 1.2 1.2v12.8h-3.018zm6.255-.658a.709.709 0 0 1-.709.693h-1.478v-3.739h1.479a.709.709 0 0 1 .709.693z" transform="translate(-1.3 -1.299)" style="fill:#f4f4f4"/>
</svg>
