<svg data-name="ICO Solicitudes genericas" xmlns="http://www.w3.org/2000/svg" width="20" height="20" viewBox="0 0 20 20">
    <path data-name="Rectángulo 145634" style="fill:none" d="M0 0h20v20H0z"/>
    <path d="M16.963 0H8.439a.993.993 0 0 0-.981.981v3.5H.981A.993.993 0 0 0 0 5.467v7.4a1.321 1.321 0 0 0 .449 1.037L4.121 17.5a1.449 1.449 0 0 0 1.037.449H9.5a.993.993 0 0 0 .981-.981v-5.08l1.15 1.15a1.449 1.449 0 0 0 1.037.449h4.346A.993.993 0 0 0 18 12.5V.981A1.085 1.085 0 0 0 16.963 0zM2.1 13.458h2.386v2.327zm6.869 3h-3v-3.533a.993.993 0 0 0-.981-.981h-3.5V5.972h7.484zm1.486-6.589v-.14h.757v.813zm6 2.1H12.7V9.2a.993.993 0 0 0-.981-.981h-1.261v-2.78a.993.993 0 0 0-.981-.981h-.5V1.486h7.486z" transform="translate(1 1)" style="fill:#f4f4f4"/>
</svg>
