<svg data-name="Icon- edit" xmlns="http://www.w3.org/2000/svg" width="22" height="22" viewBox="0 0 22 22">
    <path data-name="Trazado 133" d="m19.261 5.982-3.244-3.244a.682.682 0 0 0-.487-.2h-.022a.773.773 0 0 0-.522.229L4.233 13.522a.57.57 0 0 0-.142.237L2.528 19c-.064.212.259.478.441.478a.2.2 0 0 0 .035 0c.155-.036 4.427-1.319 5.24-1.564a.552.552 0 0 0 .233-.14L19.231 7.013a.772.772 0 0 0 .227-.5.69.69 0 0 0-.2-.531zM4 18l1.13-3.788 2.656 2.65C6.569 17.232 5.049 17.691 4 18z" style="fill:#323232"/>
</svg>
