<svg xmlns="http://www.w3.org/2000/svg" width="48" height="48" viewBox="0 0 48 48">
    <g data-name="Grupo 160265" transform="translate(-820 -260)">
        <circle data-name="Oval 8" cx="24" cy="24" r="24" transform="translate(820 260)" style="fill:#2f61d5"/>
        <path data-name="Rectángulo 145638" style="fill:none" d="M0 0h24v24H0z" transform="translate(832 272)"/>
        <path data-name="Trazado 152" d="M16.54 11 13 7.46l1.41-1.41 2.12 2.12 4.24-4.24 1.41 1.41zM11 7H2v2h9zm10 6.41L19.59 12 17 14.59 14.41 12 13 13.41 15.59 16 13 18.59 14.41 20 17 17.41 19.59 20 21 18.59 18.41 16zM11 15H2v2h9z" style="fill:#fff" transform="translate(832 272)"/>
    </g>
</svg>
