<svg data-name="SAS MENU modulos" xmlns="http://www.w3.org/2000/svg" width="20" height="20" viewBox="0 0 20 20">
    <path data-name="Rectángulo 147519" style="fill:none" d="M0 0h20v20H0z"/>
    <path d="M18.562 1.3H2.731A1.429 1.429 0 0 0 1.3 2.731v15.831a1.462 1.462 0 0 0 1.461 1.461h15.832a1.462 1.462 0 0 0 1.461-1.461V2.731A1.5 1.5 0 0 0 18.562 1.3zM2.731 2.366h15.831a.4.4 0 0 1 .4.4v4.349H2.366V2.731a.352.352 0 0 1 .365-.365zM9.672 8.15h9.286v4.962H9.672zM2.366 18.562V8.15h6.241v10.777H2.731a.336.336 0 0 1-.365-.365zm16.2.4H9.672v-4.753h9.286v4.354a.4.4 0 0 1-.396.395z" transform="translate(-.677 -.662)" style="fill:#fff"/>
</svg>
