<svg xmlns="http://www.w3.org/2000/svg" width="24" height="24" viewBox="0 0 24 24">
    <path data-name="Path / file-pdf-outline" d="m14 2 6 6v12a2 2 0 0 1-2 2H6a2 2 0 0 1-2-2V4a2 2 0 0 1 2-2h8m4 18V9h-5V4H6v16h12m-7.08-7.69c-.24-.77-.77-3.23.63-3.27s.48 3.12.48 3.12a5.284 5.284 0 0 0 2.02 2.56c.5-.15 3.35-.48 2.95 1-.43 1.48-3.5.09-3.5.09a14.283 14.283 0 0 0-3.41.66c-1.13 2.11-2.45 3.03-2.99 2.14-.67-1.11 2.13-2.54 2.13-2.54a12.157 12.157 0 0 0 1.69-3.76m.65.84a15.559 15.559 0 0 1-1.2 2.69 23.068 23.068 0 0 1 2.71-.73 5.861 5.861 0 0 1-1.51-1.96m3.14 2.17s1.75.65 1.79.39c.07-.27-1.33-.51-1.79-.39m-5.66 1.49c-.77.3-1.51 1.58-1.33 1.58a2.894 2.894 0 0 0 1.33-1.58m2.52-5.55c0-.05.43-1.68 0-1.73-.3-.03-.01 1.69 0 1.73z" style="fill:#ff7052"/>
</svg>
