<svg data-name="ICO requerimientos" xmlns="http://www.w3.org/2000/svg" width="28" height="28" viewBox="0 0 28 28">
    <path data-name="Rectángulo 147530" style="fill:none" d="M0 0h28v28H0z"/>
    <path data-name="Trazado 37606" d="M23.172 1.8H11.535A2.249 2.249 0 0 0 9.3 4.035v17.03a2.249 2.249 0 0 0 2.235 2.235h11.6a2.249 2.249 0 0 0 2.235-2.235V4a2.211 2.211 0 0 0-2.198-2.2zm.6 19.229a.636.636 0 0 1-.639.639h-11.6a.636.636 0 0 1-.639-.639V4a.636.636 0 0 1 .639-.639h11.6a.636.636 0 0 1 .642.639v17.03z" transform="translate(-3.3 1.2)" style="fill:#1473e6;stroke:#1473e6;stroke-width:.5px"/>
    <path data-name="Trazado 37607" d="M27.489 12.722h-5.535v-.106a.825.825 0 0 0-.816-.816.8.8 0 0 0-.816.816v.106h-.106a.825.825 0 0 0-.816.816.8.8 0 0 0 .816.816h.106v.106a.825.825 0 0 0 .816.816.8.8 0 0 0 .816-.816v-.106h5.535a.816.816 0 0 0 0-1.632z" transform="translate(-9.816 -5.252)" style="fill:#1473e6;stroke:#1473e6;stroke-width:.5px"/>
    <path data-name="Trazado 37608" d="M27.554 28.122h-.106v-.106a.825.825 0 0 0-.816-.816.8.8 0 0 0-.816.816v.106h-5.5a.816.816 0 1 0 0 1.632h5.535v.106a.825.825 0 0 0 .816.816.8.8 0 0 0 .816-.816v-.106h.106a.825.825 0 0 0 .816-.816.909.909 0 0 0-.851-.816z" transform="translate(-9.881 -15.188)" style="fill:#1473e6;stroke:#1473e6;stroke-width:.5px"/>
    <path data-name="Trazado 37609" d="M27.489 43.422h-5.535v-.106a.825.825 0 0 0-.816-.816.8.8 0 0 0-.816.816v.106h-.106a.825.825 0 0 0-.816.816.8.8 0 0 0 .816.816h.106v.106a.825.825 0 0 0 .816.816.8.8 0 0 0 .816-.816v-.106h5.535a.816.816 0 0 0 0-1.632z" transform="translate(-9.816 -25.06)" style="fill:#1473e6;stroke:#1473e6;stroke-width:.5px"/>
</svg>
