<svg data-name="SAS MENU prs.no nomencladas" xmlns="http://www.w3.org/2000/svg" width="20" height="20.001" viewBox="0 0 20 20.001">
    <path data-name="Rectángulo 147520" transform="translate(0 .001)" style="fill:none" d="M0 0h20v20H0z"/>
    <path d="M22.725 4.162h-.943v-.455A2.4 2.4 0 0 0 19.375 1.3h-9.268A2.4 2.4 0 0 0 7.7 3.707v11.024a1.566 1.566 0 0 0 .423 1.041l4.943 5.073a1.53 1.53 0 0 0 1.073.455h6.147a1.513 1.513 0 0 0 1.5-1.5v-.358l1.626-3.317a.613.613 0 0 0 .065-.26l.033-10.927a.839.839 0 0 0-.785-.776zm-.358 2.732h-2.276V5.268c.748 0 1.5 0 2.277.033zM13 19.154l-3.382-3.48H13zm7.285 1.008h-6.146v-4.845a.791.791 0 0 0-.781-.781h-4.52V3.707a1.27 1.27 0 0 1 1.268-1.268h9.236a1.27 1.27 0 0 1 1.268 1.268v.455h-.878a.828.828 0 0 0-.846.781l-.031 10.927a.765.765 0 0 0 .065.26l1.659 3.317v.353a.28.28 0 0 1-.293.363zm.911-2.146-1.138-2.276V8.032h2.277v7.708z" transform="translate(-5.7 -1.3)" style="fill:#fff"/>
</svg>
