<svg xmlns="http://www.w3.org/2000/svg" width="24" height="24" viewBox="0 0 24 24">
    <g data-name="MDI / filter-minus-outline">
        <path data-name="Path / filter-minus-outline" d="M15 17h8v2h-8v-2m-2 2.88a.981.981 0 0 1-.28.83 1.008 1.008 0 0 1-1.42 0L7.29 16.7a.989.989 0 0 1-.29-.83v-5.12L2.21 4.62a1 1 0 0 1 .17-1.4A1.042 1.042 0 0 1 3 3h14a1.042 1.042 0 0 1 .62.22 1 1 0 0 1 .17 1.4L13 10.75v9.13M5.04 5 9 10.07v5.51l2 2v-7.53L14.96 5z" transform="translate(-.998)" style="fill:#747474"/>
    </g>
</svg>
