<svg data-name="ico-+info-tabla" xmlns="http://www.w3.org/2000/svg" width="40" height="40" viewBox="0 0 40 40">
    <rect width="40" height="40" rx="5" style="fill:rgba(47,207,213,.1)"/>
    <path data-name="Path / thumb-up" d="M23 10a2 2 0 0 0-2-2h-6.32l.96-4.57a1.655 1.655 0 0 0 .03-.32 1.505 1.505 0 0 0-.44-1.06L14.17 1 7.59 7.58A2 2 0 0 0 7 9v10a2 2 0 0 0 2 2h9a1.987 1.987 0 0 0 1.84-1.22l3.02-7.05A1.976 1.976 0 0 0 23 12v-2M1 21h4V9H1z" transform="translate(8 9)" style="fill:#3fb6dc"/>
</svg>
