<svg data-name="ico-+info-tabla" xmlns="http://www.w3.org/2000/svg" width="40" height="40" viewBox="0 0 40 40">
    <rect width="40" height="40" rx="5" style="fill:rgba(255,112,82,.1)"/>
    <path data-name="Path / thumb-down" d="M19 15h4V3h-4m-4 0H6a1.987 1.987 0 0 0-1.84 1.22l-3.02 7.05A1.976 1.976 0 0 0 1 12v2a2 2 0 0 0 2 2h6.31l-.95 4.57a1.553 1.553 0 0 0-.03.31 1.488 1.488 0 0 0 .44 1.06L9.83 23l6.58-6.59A1.955 1.955 0 0 0 17 15V5a2 2 0 0 0-2-2z" transform="translate(8 7)" style="fill:#ff7052"/>
</svg>
