<svg data-name="ico-+info-tabla" xmlns="http://www.w3.org/2000/svg" width="40" height="40" viewBox="0 0 40 40">
    <rect width="40" height="40" rx="5" style="fill:rgba(255,205,113,.27)"/>
    <path data-name="Path / account-convert" d="m12 0-.66.03 3.81 3.81L16.5 2.5a10.582 10.582 0 0 1 5.95 8.5h1.5A11.994 11.994 0 0 0 12 0m0 4a3.5 3.5 0 1 0 3.5 3.5A3.5 3.5 0 0 0 12 4M.05 13A11.994 11.994 0 0 0 12 24l.66-.03-3.81-3.81L7.5 21.5A10.567 10.567 0 0 1 1.55 13H.05M12 13c-3.87 0-7 1.57-7 3.5V18h14v-1.5c0-1.93-3.13-3.5-7-3.5z" transform="translate(7.95 8)" style="fill:#fdc200"/>
</svg>
