<svg xmlns="http://www.w3.org/2000/svg" width="40" height="40" viewBox="0 0 40 40">
    <rect width="40" height="40" rx="5" style="fill:rgba(47,97,213,.1)"/>
    <g data-name="MDI / lock-open-check-outline">
        <path data-name="Path / lock-open-check-outline" d="M14 15a2 2 0 1 1-2-2 1.993 1.993 0 0 1 2 2m-8 5V10h12v3.09a5.6 5.6 0 0 1 2 0V10a2 2 0 0 0-2-2h-1V6A5 5 0 0 0 7 6h2a3 3 0 0 1 6 0v2H6a2 2 0 0 0-2 2v10a2 2 0 0 0 2 2h7.81a6.211 6.211 0 0 1-.72-2H6m15.34-4.16-3.59 3.59-1.59-1.59L15 19l2.75 3 4.75-4.75z" transform="translate(7 9)" style="fill:#2f61d5"/>
    </g>
</svg>
