<svg xmlns="http://www.w3.org/2000/svg" width="40" height="40" viewBox="0 0 40 40">
    <rect width="40" height="40" rx="5" style="fill:rgba(255,112,82,.1)"/>
    <g data-name="MDI / lock-alert-outline">
        <path data-name="Path / lock-alert-outline" d="M10 17a2 2 0 1 1 2-2 2.006 2.006 0 0 1-2 2m6 3V10H4v10h12m0-12a2.006 2.006 0 0 1 2 2v10a2.006 2.006 0 0 1-2 2H4a2.006 2.006 0 0 1-2-2V10a2.006 2.006 0 0 1 2-2h1V6a5 5 0 0 1 10 0v2h1m-6-5a2.946 2.946 0 0 0-3 3v2h6V6a2.946 2.946 0 0 0-3-3m12 4h-2v6h2V7m0 8h-2v2h2z" transform="translate(9 9)" style="fill:#ff7052"/>
    </g>
</svg>
