<svg width="22" height="22" viewBox="0 0 22 22" fill="none" xmlns="http://www.w3.org/2000/svg">
<path d="M11 2C9.21997 2 7.47991 2.52784 5.99987 3.51677C4.51983 4.50571 3.36628 5.91131 2.68509 7.55585C2.0039 9.20038 1.82567 11.01 2.17294 12.7558C2.5202 14.5016 3.37737 16.1053 4.63604 17.364C5.89472 18.6226 7.49836 19.4798 9.24419 19.8271C10.99 20.1743 12.7996 19.9961 14.4442 19.3149C16.0887 18.6337 17.4943 17.4802 18.4832 16.0001C19.4722 14.5201 20 12.78 20 11C20 9.8181 19.7672 8.64778 19.3149 7.55585C18.8626 6.46392 18.1997 5.47177 17.364 4.63604C16.5282 3.80031 15.5361 3.13738 14.4442 2.68508C13.3522 2.23279 12.1819 2 11 2ZM16.638 7.609L10.1 15.652C10.0165 15.754 9.89611 15.8188 9.76502 15.8325C9.63394 15.8462 9.50275 15.8075 9.4 15.725C9.38632 15.7141 9.3733 15.7024 9.361 15.69L5.086 11.5C4.99227 11.4062 4.93961 11.2791 4.93961 11.1465C4.93961 11.0139 4.99227 10.8868 5.086 10.793L5.793 10.086C5.88677 9.99226 6.01392 9.93961 6.1465 9.93961C6.27909 9.93961 6.40624 9.99226 6.5 10.086L9.6 13.1L15.086 6.349C15.1695 6.24703 15.2899 6.18215 15.421 6.16848C15.5521 6.15481 15.6833 6.19345 15.786 6.276L16.562 6.907C16.6644 6.99007 16.7299 7.11025 16.7441 7.24135C16.7583 7.37246 16.7202 7.50388 16.638 7.607V7.609Z" fill="#33AB84"/>
</svg>
