<svg data-name="ICO- Auto pendientes" xmlns="http://www.w3.org/2000/svg" width="18.045" height="15.104" viewBox="0 0 18.045 15.104">
    <path data-name="Trazado 37635" d="M3.977 4.3A2.1 2.1 0 0 0 1.8 6.294a2.106 2.106 0 0 0 2.177 2.021 2.084 2.084 0 0 0 2.178-1.994A2.126 2.126 0 0 0 3.977 4.3zm0 2.786a.8.8 0 0 1-.835-.765.838.838 0 0 1 1.67 0 .8.8 0 0 1-.835.765z" transform="translate(-1.8 -4.3)" style="fill:#fff"/>
    <path data-name="Trazado 37636" d="M3.977 24.7a2 2 0 1 0 0 3.988 2 2 0 1 0 0-3.988zm0 2.759a.8.8 0 0 1-.835-.765.838.838 0 0 1 1.67 0 .8.8 0 0 1-.835.765z" transform="translate(-1.8 -19.128)" style="fill:#fff"/>
    <path data-name="Trazado 37637" d="M3.977 45a2 2 0 1 0 0 3.988 2 2 0 1 0 0-3.988zm0 2.786a.8.8 0 0 1-.835-.765.838.838 0 0 1 1.67 0 .8.8 0 0 1-.835.765z" transform="translate(-1.8 -33.883)" style="fill:#fff"/>
    <path data-name="Trazado 37638" d="M22.786 10.556H33.4a.667.667 0 0 0 .686-.628.648.648 0 0 0-.686-.628H22.786a.667.667 0 0 0-.686.628.648.648 0 0 0 .686.628z" transform="translate(-16.045 -7.934)" style="fill:#fff"/>
    <path data-name="Trazado 37639" d="M33.4 29.8H22.786a.631.631 0 1 0 0 1.256H33.4a.631.631 0 1 0 0-1.256z" transform="translate(-16.045 -22.835)" style="fill:#fff"/>
    <path data-name="Trazado 37640" d="M33.4 50.1H22.786a.667.667 0 0 0-.686.628.648.648 0 0 0 .686.628H33.4a.631.631 0 1 0 0-1.256z" transform="translate(-16.045 -37.591)" style="fill:#fff"/>
</svg>
