<svg xmlns="http://www.w3.org/2000/svg" id="ICO_Consultas_y_reclamos" width="20" height="20" viewBox="0 0 20 20">
    <defs>
        <style>
            .cls-2{fill:#fff}
        </style>
    </defs>
    <path id="Rectángulo_145637" fill="none" d="M0 0H20V20H0z"/>
    <g id="consulting" transform="translate(0.988 -1.9)">
        <path id="Trazado_57" d="M21.685 21.547l-1.715-1.715-1.94.9a.742.742 0 0 0 .618 1.349l.309-.141a5.865 5.865 0 0 1-2.333 2.924v-2.417a2.755 2.755 0 0 0-2.615-2.839h-.139a2.412 2.412 0 0 0 1.574-2.333 2.474 2.474 0 1 0-4.948 0 2.542 2.542 0 0 0 1.659 2.333h-.365a2.737 2.737 0 0 0-2.615 2.839V24.7a6.077 6.077 0 0 1-2.249-3.149.765.765 0 1 0-1.434.534 7.9 7.9 0 0 0 14.928.309l.225.225a.822.822 0 0 0 .534.225.885.885 0 0 0 .534-.225.756.756 0 0 0-.028-1.072zM13 16.374a.984.984 0 1 1-.984.984.944.944 0 0 1 .984-.984zm-2.335 9.306v-3.093a1.265 1.265 0 0 1 1.125-1.349h.675l-.31 1.262.759 2.39.759-2.39-.309-1.349h.675a1.265 1.265 0 0 1 1.124 1.349v3.149h.084A5.543 5.543 0 0 1 13 26.1a7.148 7.148 0 0 1-2.335-.42z" class="cls-2" transform="translate(-3.909 -7.836)"/>
        <path id="Trazado_58" d="M4.057 10.788a.767.767 0 1 0-.731-1.349l-.226.14a6.388 6.388 0 0 1 12.2.675.74.74 0 0 0 1.434-.365A7.934 7.934 0 0 0 1.5 9.382l-.225-.225a.7.7 0 0 0-1.04 0 .721.721 0 0 0 0 1.04l1.715 1.715z" class="cls-2" transform="translate(0 0)"/>
    </g>
</svg>
