<svg xmlns="http://www.w3.org/2000/svg" width="18" height="15.892" viewBox="0 0 18 15.892">
    <path data-name="folder" d="M19.413 10.574V9.548a1.845 1.845 0 0 0-1.815-1.9h-6.6L10.9 7.4a1.356 1.356 0 0 0-1.279-.9H3.615A1.845 1.845 0 0 0 1.8 8.4v12.1a1.845 1.845 0 0 0 1.815 1.9h14.37a1.845 1.845 0 0 0 1.815-1.9v-8.962a1.4 1.4 0 0 0-.387-.964zM17.6 9.019a.481.481 0 0 1 .476.5v.591h-6.131l-.417-1.089zm.861 11.481a.481.481 0 0 1-.476.5H3.615a.481.481 0 0 1-.476-.5V8.366a.481.481 0 0 1 .476-.5l6.04.031 1.22 3.172a.645.645 0 0 0 .625.435h6.932a.03.03 0 0 1 .03.031V20.5z" transform="translate(-1.8 -6.5)" style="fill:#fff"/>
</svg>
