<svg xmlns="http://www.w3.org/2000/svg" width="18.078" height="14.213" viewBox="0 0 18.078 14.213">
    <path data-name="Trazado 37674" d="m19.312 18.531-6.4-8.838A2.606 2.606 0 0 0 10.794 8.6a2.527 2.527 0 0 0-2.122 1.093l-6.4 8.838a2.693 2.693 0 0 0-.239 2.794A2.62 2.62 0 0 0 4.4 22.813h12.79a2.62 2.62 0 0 0 2.361-1.488 2.7 2.7 0 0 0-.239-2.794zm-.956 2.187a1.29 1.29 0 0 1-1.166.729H4.4a1.29 1.29 0 0 1-1.166-.729 1.322 1.322 0 0 1 .12-1.367l6.4-8.838a1.3 1.3 0 0 1 1.046-.547 1.22 1.22 0 0 1 1.046.547l6.4 8.838a1.322 1.322 0 0 1 .109 1.367z" transform="translate(-1.755 -8.6)" style="fill:#fff"/>
    <path data-name="Trazado 37675" d="M30.349 23a.657.657 0 0 0-.649.649v3.077a.657.657 0 0 0 .649.649.639.639 0 0 0 .651-.648v-3.106a.652.652 0 0 0-.651-.621z" transform="translate(-21.311 -18.474)" style="fill:#fff"/>
    <path data-name="Trazado 37676" d="M30.349 40.8a.657.657 0 0 0-.649.649v.141a.657.657 0 0 0 .649.649.639.639 0 0 0 .651-.648v-.169a.652.652 0 0 0-.651-.622z" transform="translate(-21.311 -30.937)" style="fill:#fff"/>
</svg>
