<svg xmlns="http://www.w3.org/2000/svg" id="ICO_Siniestros_pendientes" width="20" height="20" viewBox="0 0 20 20">
    <defs>
        <style>
            .cls-2{fill:#fff}
        </style>
    </defs>
    <path id="Rectángulo_145635" fill="none" d="M0 0H20V20H0z"/>
    <g id="book" transform="translate(-4.8 1)">
        <path id="Trazado_41" d="M20.344 3.009H10.078c-.309 0-.759-.084-.759-.675a.816.816 0 0 1 .816-.816h10.434a.723.723 0 0 0 .759-.759.723.723 0 0 0-.759-.759H10.134A2.378 2.378 0 0 0 7.8 2.166v13.95A1.954 1.954 0 0 0 9.825 18H20.4a1 1 0 0 0 .984-.984V3.966a1.087 1.087 0 0 0-1.04-.957zm-.534 13.5H9.853c-.309 0-.534-.141-.534-.366V4.359a2.032 2.032 0 0 0 .759.141h9.759v12.009z" class="cls-2" transform="translate(0)"/>
        <path id="Trazado_42" d="M21.959 52.119h4.5a.759.759 0 1 0 0-1.519h-4.5a.759.759 0 1 0 0 1.519z" class="cls-2" transform="translate(-9.631 -36.369)"/>
        <path id="Trazado_43" d="M21.959 22.369h4.5a.723.723 0 0 0 .759-.759v-2.25a.723.723 0 0 0-.759-.759h-4.5a.723.723 0 0 0-.759.759v2.25a.723.723 0 0 0 .759.759zm.731-2.25h3.01v.759h-3.009z" class="cls-2" transform="translate(-9.631 -13.369)"/>
    </g>
</svg>
