<svg xmlns="http://www.w3.org/2000/svg" width="24" height="24" viewBox="0 0 24 24">
    <path data-name="Path / numeric-10" d="M10 7H6v2h2v8h2V7m6 0h-2a2.006 2.006 0 0 0-2 2v6a2 2 0 0 0 2 2h2a1.993 1.993 0 0 0 2-2V9a2 2 0 0 0-2-2m0 8h-2V9h2z" transform="translate(1)" style="fill:#f5f5f5"/>
    <g data-name="MDI / timer-10">
        <path data-name="Path / timer-10" d="M21.418 12.543a1.384 1.384 0 0 0-.418-.488 2.439 2.439 0 0 0-.666-.35 7.717 7.717 0 0 0-.891-.251 6.3 6.3 0 0 1-.574-.145 1.886 1.886 0 0 1-.363-.172.473.473 0 0 1-.185-.2.616.616 0 0 1-.059-.257.653.653 0 0 1 .066-.27.541.541 0 0 1 .178-.224.978.978 0 0 1 .3-.158 1.359 1.359 0 0 1 .422-.059 1.117 1.117 0 0 1 .435.073.945.945 0 0 1 .317.191.871.871 0 0 1 .191.277.921.921 0 0 1 .073.323h1.28a1.661 1.661 0 0 0-.158-.719 1.624 1.624 0 0 0-.462-.581 2.165 2.165 0 0 0-.712-.389 3.186 3.186 0 0 0-1.88-.007 2.324 2.324 0 0 0-.706.376 1.627 1.627 0 0 0-.435.554 1.451 1.451 0 0 0-.152.666 1.285 1.285 0 0 0 .152.633 1.43 1.43 0 0 0 .435.482 2.3 2.3 0 0 0 .633.35 5.482 5.482 0 0 0 .838.238 4.288 4.288 0 0 1 .627.172 1.648 1.648 0 0 1 .376.191.491.491 0 0 1 .165.224.5.5 0 0 1 .059.264.6.6 0 0 1-.264.5 1.3 1.3 0 0 1-.785.191 1.482 1.482 0 0 1-.409-.053 1.227 1.227 0 0 1-.369-.158.762.762 0 0 1-.27-.29.914.914 0 0 1-.119-.442H16.84a1.568 1.568 0 0 0 .16.695 2 2 0 0 0 .462.614 2.411 2.411 0 0 0 .759.435 2.972 2.972 0 0 0 1.036.158 3.364 3.364 0 0 0 .957-.119 2.523 2.523 0 0 0 .732-.356 1.611 1.611 0 0 0 .468-.548 1.451 1.451 0 0 0 .152-.7 1.427 1.427 0 0 0-.145-.673" transform="translate(-14.299 2.063)" style="fill:#f5f5f5"/>
    </g>
</svg>
