<svg xmlns="http://www.w3.org/2000/svg" width="24" height="20.069" viewBox="0 0 24 20.069">
    <path d="M26.793 13.121v-2.4a1.748 1.748 0 0 0-1.738-1.738H14.5l-.248-.662a1.033 1.033 0 0 0-.91-.621h-8.19A2.227 2.227 0 0 0 3 9.893v15.724a2.137 2.137 0 0 0 2.152 2.152h19.7A2.137 2.137 0 0 0 27 25.617V13.741a1.231 1.231 0 0 0-.207-.62zm-1.738-2.648a.283.283 0 0 1 .29.29v1.986h-9.352l-.91-2.276zm.5 15.145a.725.725 0 0 1-.7.7H5.152a.725.725 0 0 1-.7-.7V9.893a.725.725 0 0 1 .7-.7h7.862l1.655 4.1a1.438 1.438 0 0 0 1.324.91h9.559z" transform="translate(-3 -7.7)" style="fill:#1473e6"/>
</svg>
