<svg data-name="MDI / alarm-off" xmlns="http://www.w3.org/2000/svg" width="24" height="24" viewBox="0 0 24 24">
    <path data-name="Path / alarm-off" d="M8 3.28 6.6 1.86l-.86.71L7.16 4m9.31 14.39a7 7 0 0 1-9.86-9.86M2.92 2.29 1.65 3.57 3 4.9l-1.13.93 1.42 1.42 1.11-.94.8.8A9 9 0 0 0 17.89 19.8l2.2 2.2 1.27-1.27L3.89 3.27l-.97-.98M22 5.72l-4.6-3.86-1.29 1.53 4.6 3.86L22 5.72M12 6a7 7 0 0 1 7 7 7.088 7.088 0 0 1-.43 2.4l1.52 1.52A8.9 8.9 0 0 0 21 13a9 9 0 0 0-9-9 8.9 8.9 0 0 0-3.92.91L9.6 6.43A7.088 7.088 0 0 1 12 6z" transform="translate(.348 .139)" style="fill:#f29423"/>
</svg>
