<svg xmlns="http://www.w3.org/2000/svg" width="16.402" height="18.457" viewBox="0 0 16.402 18.457">
    <path data-name="ward_FILL0_wght300_GRAD0_opsz48" d="M102.86-860h1.789a.683.683 0 0 1 .5.2.68.68 0 0 1 .2.5v17.757a3.027 3.027 0 0 1-.793-.57 1.145 1.145 0 0 1-.309-.831V-858.9h-1.387a.53.53 0 0 1-.388-.163.539.539 0 0 1-.163-.4.514.514 0 0 1 .163-.388.544.544 0 0 1 .388-.149zm5.6 18.457a1.347 1.347 0 0 1-.986-.415 1.347 1.347 0 0 1-.415-.986V-858.6a1.347 1.347 0 0 1 .415-.986 1.347 1.347 0 0 1 .986-.415h8.855a1.347 1.347 0 0 1 .986.415 1.347 1.347 0 0 1 .415.986v15.655a1.347 1.347 0 0 1-.415.986 1.347 1.347 0 0 1-.986.415zm-.3-9.8a3.238 3.238 0 0 1 1.033-.655 3.391 3.391 0 0 1 1.265-.233h4.857a3.391 3.391 0 0 1 1.265.233 3.238 3.238 0 0 1 1.033.655v-7.257a.291.291 0 0 0-.084-.215.291.291 0 0 0-.215-.084h-8.855a.291.291 0 0 0-.215.084.291.291 0 0 0-.084.215zm4.724-2.522a1.462 1.462 0 0 1-1.078-.445 1.476 1.476 0 0 1-.442-1.081 1.462 1.462 0 0 1 .445-1.078 1.476 1.476 0 0 1 1.081-.442 1.462 1.462 0 0 1 1.078.445 1.476 1.476 0 0 1 .442 1.081 1.462 1.462 0 0 1-.445 1.078 1.476 1.476 0 0 1-1.085.445zm-4.425 11.218h8.855a.291.291 0 0 0 .215-.084.291.291 0 0 0 .084-.215v-5.885a2.219 2.219 0 0 0-.666-1.632 2.219 2.219 0 0 0-1.632-.666h-4.857a2.219 2.219 0 0 0-1.632.666 2.219 2.219 0 0 0-.666 1.632v5.885a.291.291 0 0 0 .084.215.291.291 0 0 0 .211.087zm3.876-1.747h1.1v-1.943h1.943v-1.1h-1.943v-1.943h-1.1v1.943h-1.943v1.1h1.943zm-3.876 1.747z" transform="translate(-102.309 859.999)" style="fill:#fff"/>
</svg>
