<svg xmlns="http://www.w3.org/2000/svg" width="20" height="20" viewBox="0 0 20 20">
    <path fill="none" d="M0 0H20V20H0z"/>
    <path fill="#fff" d="M17.768 4.884a.7.7 0 0 0-1.04 0l-.9.9v-.31A1.537 1.537 0 0 0 14.254 3.9H1.6A1.544 1.544 0 0 0 0 5.474v12.652A1.537 1.537 0 0 0 1.574 19.7h12.652a1.59 1.59 0 0 0 1.574-1.574V7.948l1.968-1.968a.764.764 0 0 0 0-1.096zM14.31 18.126l-12.736.084c-.084 0-.084 0-.084-.084V5.474c0-.084 0-.084.084-.084h12.652c.084 0 .084 0 .084.084v1.884l-2.952 2.924-1.743-1.743a.736.736 0 0 0-1.04 1.04l2.249 2.333.141.141.084.084c.084 0 .141.084.309.084s.225 0 .309-.084a.083.083 0 0 0 .084-.084.151.151 0 0 0 .141-.141l2.418-2.417v8.631z" transform="translate(1 -1.9)"/>
</svg>
