<svg xmlns="http://www.w3.org/2000/svg" width="18.736" height="15.18" viewBox="0 0 18.736 15.18">
    <path data-name="surgical_FILL0_wght300_GRAD0_opsz48" d="m92.4-792.875-2.848-2.848 7.3-7.3a.652.652 0 0 1 .48-.2.658.658 0 0 1 .482.2l1.885 1.885a.652.652 0 0 1 .2.48.658.658 0 0 1-.2.482zm0-1.5 6.287-6.287-1.343-1.343-6.287 6.287zm-.1 6.323 1.078-1.063h8.43v1.063zm-6.121.009a4.641 4.641 0 0 1-1.666-.3 4.735 4.735 0 0 1-1.442-.865l5.5-5.483 2.1 2.1a1.984 1.984 0 0 1 .423.6 1.711 1.711 0 0 1 .154.715 1.8 1.8 0 0 1-.151.725 1.954 1.954 0 0 1-.416.612l-.445.454a4.732 4.732 0 0 1-1.6 1.068 4.979 4.979 0 0 1-1.893.372zm0-1.063h.562a3.854 3.854 0 0 0 1.485-.3 3.834 3.834 0 0 0 1.26-.84l.469-.46a.71.71 0 0 0 .205-.582.956.956 0 0 0-.276-.591l-1.316-1.307-3.854 3.83a3.8 3.8 0 0 0 .71.184 4.707 4.707 0 0 0 .763.061zm12.5-11.555-1.343-1.343zm-10.102 7.474z" transform="translate(-83.08 803.228)" style="fill:#fff"/>
</svg>
