<svg xmlns="http://www.w3.org/2000/svg" width="19.021" height="18.457" viewBox="0 0 19.021 18.457">
    <path data-name="clinical_notes_FILL0_wght300_GRAD0_opsz48" d="M153.407-807.949a2.542 2.542 0 0 1-1.867-.769 2.542 2.542 0 0 1-.769-1.867 2.541 2.541 0 0 1 .769-1.867 2.541 2.541 0 0 1 1.867-.769 2.541 2.541 0 0 1 1.867.769 2.541 2.541 0 0 1 .769 1.867 2.541 2.541 0 0 1-.769 1.867 2.542 2.542 0 0 1-1.867.769zm0-1.127a1.46 1.46 0 0 0 1.076-.433 1.46 1.46 0 0 0 .433-1.076 1.46 1.46 0 0 0-.433-1.076 1.46 1.46 0 0 0-1.076-.433 1.46 1.46 0 0 0-1.076.433 1.46 1.46 0 0 0-.433 1.076 1.46 1.46 0 0 0 .433 1.076 1.46 1.46 0 0 0 1.076.433zm-4.9 7.534a.693.693 0 0 1-.51-.206.693.693 0 0 1-.206-.51v-1.82a1.679 1.679 0 0 1 .206-.811 1.578 1.578 0 0 1 .576-.606 7.66 7.66 0 0 1 1.141-.587 10 10 0 0 1 1.24-.369 1.217 1.217 0 0 1 .461 0 .58.58 0 0 1 .37.23l1.621 2.118 1.612-2.118a.644.644 0 0 1 .375-.229 1.2 1.2 0 0 1 .465 0 9.675 9.675 0 0 1 1.227.367 8.266 8.266 0 0 1 1.139.586 1.6 1.6 0 0 1 .579.6 1.724 1.724 0 0 1 .218.8v1.83a.693.693 0 0 1-.206.51.693.693 0 0 1-.51.206zm.4-1.127h4.165l-2.055-2.689a11 11 0 0 0-1.094.43 10.392 10.392 0 0 0-1.016.533zm4.839 0h4.146v-1.731a9.832 9.832 0 0 0-1.014-.528q-.525-.236-1.081-.425zm-.671 0zm.674 0zm-.342-7.915zm-12.279 6.34zm.31 1.127a1.381 1.381 0 0 1-1.014-.424 1.379 1.379 0 0 1-.424-1.009v-14.017a1.377 1.377 0 0 1 .424-1.008 1.377 1.377 0 0 1 1.008-.424h14.018a1.377 1.377 0 0 1 1.008.424 1.377 1.377 0 0 1 .424 1.008v5.168a3.944 3.944 0 0 0-.5-.637 4.39 4.39 0 0 0-.629-.539v-3.991a.3.3 0 0 0-.086-.22.3.3 0 0 0-.22-.086h-14.014a.3.3 0 0 0-.22.086.3.3 0 0 0-.086.22v14.017a.3.3 0 0 0 .086.22.3.3 0 0 0 .22.086h4.335a.632.632 0 0 1 .014.088v1.039zm2.85-11.916h7.7a4.676 4.676 0 0 1 .58-.115q.289-.038.589-.057v-.936a.018.018 0 0 0-.005-.014.018.018 0 0 0-.014-.005h-8.851a.543.543 0 0 0-.4.163.552.552 0 0 0-.162.4.536.536 0 0 0 .162.4.551.551 0 0 0 .401.163zm0 4.039h4.526a5.366 5.366 0 0 1 .07-.575 3.751 3.751 0 0 1 .14-.552h-4.736a.543.543 0 0 0-.4.163.552.552 0 0 0-.162.4.536.536 0 0 0 .162.4.551.551 0 0 0 .4.163zm0 4.039h2.9a5.179 5.179 0 0 1 .78-.491q.4-.206.844-.386v.038a.478.478 0 0 0-.178-.223.562.562 0 0 0-.292-.065h-4.054a.543.543 0 0 0-.4.163.552.552 0 0 0-.162.4.536.536 0 0 0 .162.4.551.551 0 0 0 .4.163z" transform="translate(-140.001 819.999)" style="fill:#fff"/>
</svg>
